PathFileType  4	(X/Y/Z) C:\Users\wagnerel85475\Documents\Thesis\opencap-core\Data\3375ffbc-daeb-4a43-b4f7-ac9899cd4c71\MarkerData\PreAugmentation
DataRate	CameraRate	NumFrames	NumMarkers	Units	OrigDataRate	OrigDataStartFrame	OrigNumFrames
60.0	60.0	12	20	m	60.0	76	300
Frame#	Time	Neck			RShoulder			RElbow			RWrist			LShoulder			LElbow			LWrist			midHip			RHip			RKnee			RAnkle			LHip			LKnee			LAnkle			LBigToe			LSmallToe			LHeel			RBigToe			RSmallToe			RHeel			
		X1	Y1	Z1	X2	Y2	Z2	X3	Y3	Z3	X4	Y4	Z4	X5	Y5	Z5	X6	Y6	Z6	X7	Y7	Z7	X8	Y8	Z8	X9	Y9	Z9	X10	Y10	Z10	X11	Y11	Z11	X12	Y12	Z12	X13	Y13	Z13	X14	Y14	Z14	X15	Y15	Z15	X16	Y16	Z16	X17	Y17	Z17	X18	Y18	Z18	X19	Y19	Z19	X20	Y20	Z20	

76	1.2500000	0.5670400	0.7262600	-0.1530800	0.5454900	0.7268000	0.0236100	0.3727000	0.4547200	0.1584800	0.4209300	0.2091900	0.1840700	0.5473900	0.7246300	-0.3294000	0.3659100	0.4523200	-0.4475900	0.3844600	0.1858200	-0.4738400	0.2699100	0.3140100	-0.1398400	0.2831800	0.3141700	-0.0017600	0.7696800	0.3302500	-0.0171500	0.6900600	-0.1775600	0.0007400	0.2691100	0.3186900	-0.2719600	0.7653700	0.3271700	-0.3093900	0.6867800	-0.1779300	-0.3158700	0.8944700	-0.2102300	-0.3402600	0.8449700	-0.2105900	-0.3824200	0.6304600	-0.2273600	-0.3086600	0.8805500	-0.2186100	0.0286300	0.8332300	-0.2156300	0.0697100	0.6186500	-0.2315800	-0.0127900
77	1.2666667	0.5785600	0.7196400	-0.1497200	0.5777500	0.7228700	0.0337200	0.3849100	0.4494500	0.1620000	0.4341300	0.2010300	0.1807700	0.5868800	0.7175200	-0.3371400	0.3880300	0.4409500	-0.4453500	0.4197900	0.1841100	-0.4856200	0.2806000	0.3195500	-0.1366900	0.2923400	0.3161500	-0.0057700	0.7690400	0.3336800	-0.0166100	0.6901700	-0.1776800	0.0006600	0.2897900	0.3227600	-0.2644100	0.7569400	0.3258000	-0.3136200	0.6868700	-0.1744200	-0.3152100	0.8939500	-0.2104000	-0.3404100	0.8448000	-0.2107500	-0.3824100	0.6394600	-0.2241600	-0.3051800	0.8883100	-0.2190300	0.0238100	0.8344000	-0.2154000	0.0692400	0.6194400	-0.2314400	-0.0126400
78	1.2833333	0.5980100	0.7029000	-0.1503800	0.6079000	0.7066400	0.0278300	0.3961800	0.4507200	0.1651000	0.4595600	0.1930700	0.1893300	0.6068500	0.7116600	-0.3373400	0.4082200	0.4401600	-0.4374800	0.4210200	0.1790600	-0.4865000	0.2927600	0.3187000	-0.1321000	0.2932200	0.3131500	-0.0057100	0.7688400	0.3335200	-0.0169100	0.6901600	-0.1775400	0.0006500	0.3020400	0.3291600	-0.2681700	0.7651300	0.3304400	-0.3097600	0.6869100	-0.1740700	-0.3152700	0.8944200	-0.2100500	-0.3402800	0.8449100	-0.2106200	-0.3824200	0.6306100	-0.2272700	-0.3086200	0.8896500	-0.2160900	0.0305200	0.8331900	-0.2156500	0.0698600	0.6272800	-0.2282400	-0.0171000
79	1.3000000	0.6187300	0.7014700	-0.1514900	0.6381000	0.6948000	0.0296600	0.3980700	0.4470700	0.1647300	0.4507600	0.1699300	0.1885000	0.6443300	0.7066800	-0.3286700	0.4199600	0.4312300	-0.4400700	0.4335800	0.1738000	-0.4900400	0.2803900	0.3195500	-0.1366200	0.2914500	0.3128600	-0.0051800	0.7599500	0.3316300	-0.0199800	0.6888700	-0.1810500	0.0013500	0.2788300	0.3241900	-0.2688700	0.7744400	0.3329200	-0.3061300	0.6869100	-0.1747900	-0.3164800	0.8937900	-0.2138400	-0.3410400	0.8451700	-0.2107000	-0.3824200	0.6491100	-0.2208700	-0.3091900	0.8893100	-0.2188700	0.0311600	0.8265000	-0.2184900	0.0736900	0.6281700	-0.2281400	-0.0170000
80	1.3166667	0.6467000	0.6949500	-0.1547200	0.6566000	0.6973000	0.0210900	0.4189100	0.4504800	0.1631600	0.4720400	0.1751200	0.1944600	0.6646800	0.6981000	-0.3201100	0.4498900	0.4367400	-0.4357700	0.4442700	0.1702500	-0.4865400	0.2703000	0.3096900	-0.1402900	0.2806100	0.3072000	-0.0091300	0.7593800	0.3351200	-0.0199700	0.6891100	-0.1812500	0.0014300	0.2806100	0.3209700	-0.2678100	0.7746100	0.3294100	-0.3132100	0.6873400	-0.1780000	-0.3170900	0.8942200	-0.2135200	-0.3408500	0.8452900	-0.2105000	-0.3824600	0.6400700	-0.2272100	-0.3055200	0.8904800	-0.2124300	0.0386200	0.8256200	-0.2187300	0.0744100	0.6274800	-0.2282700	-0.0171000
81	1.3333333	0.6854500	0.6897900	-0.1477500	0.6739900	0.6937200	0.0203000	0.4529100	0.4500500	0.1735000	0.4726000	0.1654300	0.1943000	0.6755500	0.6861000	-0.3233200	0.4822600	0.4329100	-0.4381300	0.4366400	0.1467200	-0.4822200	0.2806300	0.3160100	-0.1364600	0.3009700	0.3115900	-0.0098300	0.7597300	0.3351200	-0.0195800	0.6882500	-0.1848600	0.0020000	0.3224100	0.3294400	-0.2600600	0.7751200	0.3261800	-0.3140100	0.6872500	-0.1785000	-0.3170300	0.8938300	-0.2137800	-0.3409300	0.8452100	-0.2106700	-0.3823500	0.6399300	-0.2271900	-0.3059200	0.8827300	-0.2179700	0.0434900	0.8109300	-0.2245300	0.0826900	0.6285800	-0.2281000	-0.0171100
82	1.3500000	0.7043100	0.6880400	-0.1475400	0.6835700	0.6846900	0.0166400	0.4871900	0.4438200	0.1825000	0.4823200	0.1630500	0.1964300	0.6943700	0.6790600	-0.3313400	0.5045500	0.4204500	-0.4461900	0.4665800	0.1512700	-0.4925500	0.2931700	0.3186500	-0.1320300	0.3036900	0.3154300	-0.0106100	0.7600400	0.3280600	-0.0199500	0.6876600	-0.1887000	0.0027300	0.3352000	0.3289100	-0.2545200	0.7833800	0.3241300	-0.3169300	0.6878800	-0.1888400	-0.3176200	0.8945600	-0.2135300	-0.3407700	0.8452900	-0.2105700	-0.3823100	0.6314900	-0.2335800	-0.3099900	0.8828000	-0.2182300	0.0437400	0.8186900	-0.2215400	0.0861000	0.6279700	-0.2351600	-0.0171600
83	1.3666667	0.7231600	0.6835800	-0.1482700	0.7035700	0.6869900	0.0231100	0.4983800	0.4414800	0.1775700	0.4840100	0.1606300	0.1972700	0.7215600	0.6757800	-0.3349500	0.5289400	0.4149900	-0.4444300	0.5019000	0.1421300	-0.5019500	0.3249000	0.3210100	-0.1378500	0.3348300	0.3179000	-0.0249200	0.7774400	0.3288500	-0.0199900	0.6871300	-0.1918500	0.0033300	0.3448100	0.3307300	-0.2513600	0.7929600	0.3266100	-0.3133900	0.6875800	-0.1927600	-0.3168900	0.9099300	-0.2080800	-0.3407500	0.8532600	-0.2078200	-0.3785200	0.6311100	-0.2376200	-0.3097600	0.8836600	-0.2177600	0.0507900	0.8198500	-0.2212500	0.0858000	0.6288700	-0.2350400	-0.0171900
84	1.3833333	0.7412000	0.6812700	-0.1482600	0.7430900	0.6853600	0.0370500	0.5083200	0.4395300	0.1810400	0.4864300	0.1487600	0.1983300	0.7402000	0.6700200	-0.3352100	0.5401700	0.4063100	-0.4483300	0.5130500	0.1301500	-0.5057000	0.3371200	0.3307900	-0.1516600	0.3472100	0.3238200	-0.0309300	0.7780600	0.3325800	-0.0198500	0.6876900	-0.1958800	0.0027300	0.3567200	0.3368400	-0.2554300	0.8006700	0.3280400	-0.3092700	0.6879900	-0.1960100	-0.3175100	0.9034100	-0.2136100	-0.3435900	0.8454400	-0.2105700	-0.3822600	0.6307800	-0.2420000	-0.3085900	0.8837000	-0.2179700	0.0509900	0.8189600	-0.2213800	0.0862200	0.6280500	-0.2353400	-0.0172800
85	1.4000000	0.7426000	0.6671000	-0.1493200	0.7610200	0.6838400	0.0355600	0.5091600	0.4248800	0.1810700	0.5085900	0.1359100	0.2042500	0.7493300	0.6615100	-0.3390800	0.5379600	0.4002000	-0.4482500	0.5319300	0.1234100	-0.5061700	0.3581800	0.3354400	-0.1526200	0.3580500	0.3300600	-0.0354800	0.7970500	0.3297100	-0.0129000	0.6898300	-0.1886800	0.0011500	0.3664600	0.3433800	-0.2601500	0.8018500	0.3290600	-0.3094000	0.6881000	-0.1963500	-0.3174400	0.9106700	-0.2113700	-0.3402100	0.8456900	-0.2106700	-0.3822100	0.6309200	-0.2419500	-0.3090800	0.8839800	-0.2149800	0.0500900	0.8208700	-0.2181600	0.0850300	0.6381700	-0.2290900	-0.0220900
86	1.4166667	0.7600800	0.6621200	-0.1492300	0.7623700	0.6722800	0.0355900	0.5198200	0.4191700	0.1841900	0.5592800	0.1444400	0.2111500	0.7594600	0.6511100	-0.3348800	0.5472300	0.3942100	-0.4446000	0.5418400	0.1169800	-0.5104100	0.3711000	0.3425100	-0.1486900	0.3648200	0.3389700	-0.0289100	0.8053000	0.3311700	-0.0183400	0.6889600	-0.1854400	0.0018200	0.3787600	0.3493500	-0.2639500	0.8097600	0.3301000	-0.3126400	0.6876700	-0.1925000	-0.3168600	0.9033400	-0.2137900	-0.3439100	0.8453200	-0.2139500	-0.3818100	0.6397200	-0.2355300	-0.3040800	0.8829400	-0.2184300	0.0437700	0.8270400	-0.2186900	0.0817700	0.6286400	-0.2324000	-0.0178900
87	1.4333333	0.7783100	0.6546600	-0.1498100	0.7717900	0.6614100	0.0305000	0.5417400	0.4191000	0.1821200	0.5712600	0.1412300	0.2144000	0.7688700	0.6452600	-0.3301800	0.5566900	0.3891200	-0.4480600	0.5433300	0.1147100	-0.5101300	0.4045400	0.3525100	-0.1376500	0.4066000	0.3516600	-0.0129000	0.8225600	0.3272700	-0.0274400	0.6899000	-0.1887200	0.0010500	0.3886700	0.3503000	-0.2611200	0.8108600	0.3239900	-0.3128400	0.6875900	-0.1929800	-0.3168100	0.9031400	-0.2141500	-0.3440900	0.8538800	-0.2109100	-0.3852700	0.6398300	-0.2354800	-0.3044600	0.8914500	-0.2151400	0.0465300	0.8282100	-0.2186000	0.0813300	0.6290800	-0.2323600	-0.0178600
